<svg xmlns="http://www.w3.org/2000/svg" xmlns:xlink="http://www.w3.org/1999/xlink" viewBox="0 0 96 96"><defs><style>.cls-1{fill:#232919;}.cls-2{isolation:isolate;}.cls-3{mask:url(#mask);}.cls-20,.cls-4,.cls-5,.cls-6{fill:#7dc242;}.cls-5,.cls-6{opacity:0.3;}.cls-5{mix-blend-mode:screen;}.cls-14,.cls-17,.cls-20,.cls-6{mix-blend-mode:multiply;}.cls-7{fill:#fef7eb;}.cls-8{fill:#1e495b;opacity:0.1;}.cls-9{fill:#f04848;}.cls-10{fill:#232121;}.cls-11{fill:#77af42;}.cls-12,.cls-14,.cls-20,.cls-21{opacity:0.2;}.cls-13,.cls-21{fill:#cfdf6a;}.cls-15{fill:#a1cd3a;}.cls-16{clip-path:url(#clip-path);}.cls-17{opacity:0.5;}.cls-18{fill:#2d3117;}.cls-19{fill:#ffe3ab;}.cls-22{filter:url(#luminosity-noclip);}</style><filter id="luminosity-noclip" x="0" y="-8240" width="96" height="32766" filterUnits="userSpaceOnUse" color-interpolation-filters="sRGB"><feFlood flood-color="#fff" result="bg"/><feBlend in="SourceGraphic" in2="bg"/></filter><mask id="mask" x="0" y="-8240" width="96" height="32766" maskUnits="userSpaceOnUse"><g class="cls-22"/></mask><clipPath id="clip-path"><path class="cls-1" d="M67,62c.13-5.34-2.84-10-7.65-10.41-4.23-.39-6.65,3.42-10.87,4.26-5,1-10.26.53-14.11-3.85-1.5-1.7-2.47-3.39-4.28-4.73-3.57-2.64-8.37-1.59-9.43,3.65-.75,3.68.7,7.83,2.65,10.78A32.38,32.38,0,0,0,36.54,73.1a26,26,0,0,0,22.23.13,15.24,15.24,0,0,0,6.8-6.33A10.6,10.6,0,0,0,67,62Z"/></clipPath></defs><title>covid</title><g class="cls-2"><g id="Layer_1" data-name="Layer 1"><g class="cls-3"><path class="cls-4" d="M91.71,39.33c-2.29-.45-3.28.91-4.81,3.24a7,7,0,0,1-6.73,3.3l-.62-.08a1.72,1.72,0,0,1-1.4-1.49,34.56,34.56,0,0,0-1.78-6.79,1.94,1.94,0,0,1,.89-2.44l.26-.12a6.13,6.13,0,0,1,5.41.25,1.69,1.69,0,0,0,1.57.1c1.24-.62,1.53-2.94.66-5.2s-2.59-3.58-3.83-3a2,2,0,0,0-1,1.26,7.11,7.11,0,0,1-3.78,4.35l-.68.31a1.52,1.52,0,0,1-2-.7,35.4,35.4,0,0,0-2.72-4.08,2,2,0,0,1,.08-2.52,4.62,4.62,0,0,1,4.73-1.43,2.64,2.64,0,0,0,2.72-.56c1.39-1.45.86-4.68-1.2-7.21s-4.85-3.41-6.24-2a3.8,3.8,0,0,0-.66,3.4,6.18,6.18,0,0,1-1.42,5.26l-.2.22a1.48,1.48,0,0,1-2.14.14A34.37,34.37,0,0,0,60.45,19a1.93,1.93,0,0,1-.83-2.22l.08-.28a8.36,8.36,0,0,1,5-5.71,4,4,0,0,0,2.46-2.33c1-2.62-.85-6.06-4.14-7.68S56.2,0,55.2,2.65a5.17,5.17,0,0,0,.59,4.44,10.09,10.09,0,0,1,1,7.82l-.13.44a1.59,1.59,0,0,1-2,1.2,33.31,33.31,0,0,0-3.8-1l-1-.19a1.8,1.8,0,0,1-1.38-2l0-.65a1.89,1.89,0,0,1,1.08-1.63c1.82-.75,3-2.24,2.8-3.7-.25-1.8-2.53-2.88-5.07-2.42S42.92,7.3,43.18,9.1a2.89,2.89,0,0,0,2,2.21,1.89,1.89,0,0,1,1.12,1.95,1.71,1.71,0,0,1-1.61,1.68,31.6,31.6,0,0,0-5.2.4A1.63,1.63,0,0,1,37.74,14l-.14-.55a7.44,7.44,0,0,1,1.18-6.12,3.65,3.65,0,0,0,.75-3.11c-.58-2-3.39-2.84-6.28-1.79S28.48,6,29.06,8A3,3,0,0,0,31,10a6.47,6.47,0,0,1,3.93,4.55v0a1.89,1.89,0,0,1-1.07,2.25,31.12,31.12,0,0,0-7.06,3.63,1.49,1.49,0,0,1-2-.34L24.69,20a8.2,8.2,0,0,1-1.13-7.86,5,5,0,0,0,0-3.92c-1.32-2.72-5.51-3-9.37-.59S8.28,14.2,9.6,16.93c.91,1.89,3.21,2.59,5.81,2a6.11,6.11,0,0,1,6,2.37L22,22a2,2,0,0,1-.1,2.58,31.43,31.43,0,0,0-5.56,8.06,1.53,1.53,0,0,1-2.18.73,2.8,2.8,0,0,1-1.24-2.67c.24-2.7-.55-5-2.1-5.57-2-.73-4.4,1.57-5.44,5.15S5.07,37.4,7,38.13c1.22.46,2.63-.26,3.76-1.73a2.06,2.06,0,0,1,2.74-.59A1.94,1.94,0,0,1,14.32,38a33.17,33.17,0,0,0-.83,3.85,33.76,33.76,0,0,0-.38,6.07,1.76,1.76,0,0,1-1.57,1.91A1.92,1.92,0,0,1,9.67,48.3c-.87-3.4-2.8-5.75-5-5.64C1.92,42.8-.19,47,0,52.13s2.63,9.1,5.43,9C7.56,61,9.28,58.53,9.9,55.14a2,2,0,0,1,1.79-1.69l.69,0A1.66,1.66,0,0,1,14,54.79a34.84,34.84,0,0,0,2.21,6.47,2,2,0,0,1-.65,2.46l-.56.35a4.31,4.31,0,0,1-4.7-.08c-1.43-.92-2.89-1.06-3.84-.2-1.48,1.34-1.14,4.6.76,7.29s4.63,3.78,6.11,2.44a3.39,3.39,0,0,0,.92-2.67,5.77,5.77,0,0,1,2.48-5.1l.12-.08a1.5,1.5,0,0,1,2.08.5,35.33,35.33,0,0,0,4,5A2,2,0,0,1,23,73.83L22.9,74a4.83,4.83,0,0,1-4.54,1.63,3.35,3.35,0,0,0-3.25,1.06c-1.53,1.8-1.06,5.13,1,7.44s5.06,2.71,6.6.9a4.49,4.49,0,0,0,.82-3.66,6.21,6.21,0,0,1,1.31-5.06l.68-.79a1.49,1.49,0,0,1,2-.25,33.89,33.89,0,0,0,7.2,4,1.9,1.9,0,0,1,1,2.27,1.63,1.63,0,0,1-1.67,1.3c-3.8-.37-7.58,3.16-5.09,7.54a12.52,12.52,0,0,0,8,5.61,5.26,5.26,0,0,0,5.65-2.56c1.41-2.75-.72-5.87-3.55-8.34a2,2,0,0,1-.55-2l.22-.82a1.62,1.62,0,0,1,1.84-1.27l.13,0a32.48,32.48,0,0,0,7.42.61,1.68,1.68,0,0,1,1.63,1.49l0,.17a4.15,4.15,0,0,1-1.13,3.68,2.47,2.47,0,0,0-.86,2c.12,1.55,2,2.63,4.19,2.41s3.88-1.65,3.76-3.2A2.56,2.56,0,0,0,54.1,86,3.77,3.77,0,0,1,52,83.15,1.83,1.83,0,0,1,53.32,81a31.15,31.15,0,0,0,5.84-1.78,1.58,1.58,0,0,1,2.09,1.11l.14.46a13.37,13.37,0,0,1-.69,9.56,3.33,3.33,0,0,0-.23,2.42c.65,2,3.49,2.69,6.34,1.51s4.64-3.77,4-5.78a2.8,2.8,0,0,0-1.54-1.68A11.09,11.09,0,0,1,63.42,80l-.33-1a2,2,0,0,1,.74-2.22,31.16,31.16,0,0,0,3.54-2.6,1.47,1.47,0,0,1,2,.08l3.3,3.18a4.91,4.91,0,0,1,1.41,4.18,3.14,3.14,0,0,0,.68,2.76c1.22,1.16,3.55.3,5.2-1.93s2-5,.76-6.14A2.29,2.29,0,0,0,78.24,76a3.58,3.58,0,0,1-3.8-.87L71.7,72.52a2,2,0,0,1-.14-2.64A31.47,31.47,0,0,0,74.78,65a1.52,1.52,0,0,1,2-.74,6.42,6.42,0,0,1,3.44,5.19A3.29,3.29,0,0,0,81.51,72c1.64,1.07,4.2-.47,5.72-3.45s1.43-6.26-.21-7.34c-.93-.61-2.17-.37-3.33.49a5.28,5.28,0,0,1-5.55.58l-.28-.14A1.94,1.94,0,0,1,77,59.78a33.08,33.08,0,0,0,1.2-5.09,33.65,33.65,0,0,0,.36-3.63,1.69,1.69,0,0,1,1.81-1.72A7.1,7.1,0,0,1,85,52.14c1.74,2.28,2.1,5.59,5.51,5.06s4.8-4.93,5.3-8.14C96.56,44,95.26,40,91.71,39.33Z"/><path class="cls-5" d="M66.63,64.27c.13-5.34-2.84-10-7.65-10.41-4.23-.39-6.65,3.42-10.87,4.26-5,1-10.26.53-14.11-3.85-1.5-1.7-2.47-3.39-4.28-4.73-3.57-2.64-8.37-1.59-9.43,3.65C19.55,56.87,21,61,22.95,64A32.38,32.38,0,0,0,36.2,75.34a26,26,0,0,0,22.23.13,15.24,15.24,0,0,0,6.8-6.33A10.6,10.6,0,0,0,66.63,64.27Z"/><path class="cls-6" d="M69.51,38c-.76-6.26-5.84-10.64-11.37-9.78s-9.39,6.62-8.63,12.88,5.84,10.64,11.37,9.78S70.27,44.22,69.51,38Z"/><path class="cls-7" d="M69,36.38C68.31,30.3,63.36,26,58,26.87s-9.13,6.44-8.39,12.52,5.68,10.34,11.05,9.51S69.78,42.47,69,36.38Z"/><path class="cls-8" d="M60.39,46.56c-5.07.79-9.76-3-10.89-8.5a12.69,12.69,0,0,0,.09,1.34c.73,6.08,5.68,10.34,11.05,9.51S69.78,42.47,69,36.38c0-.34-.1-.68-.17-1C69,40.92,65.37,45.79,60.39,46.56Z"/><path class="cls-9" d="M65.63,38.54c-.47-3.85-3.6-6.55-7-6s-5.78,4.08-5.32,7.93,3.6,6.55,7,6S66.09,42.4,65.63,38.54Z"/><path class="cls-10" d="M62.82,39A3.48,3.48,0,0,0,59,35.7,3.78,3.78,0,0,0,56.12,40a3.48,3.48,0,0,0,3.81,3.28A3.78,3.78,0,0,0,62.82,39Z"/><path class="cls-7" d="M58.67,38.42a2.08,2.08,0,0,0-2.27-2A2.25,2.25,0,0,0,54.67,39a2.08,2.08,0,0,0,2.27,2A2.25,2.25,0,0,0,58.67,38.42Z"/><path class="cls-7" d="M63.68,41.91a1.25,1.25,0,0,0-1.36-1.17,1.35,1.35,0,0,0-1,1.54,1.25,1.25,0,0,0,1.36,1.17A1.35,1.35,0,0,0,63.68,41.91Z"/><path class="cls-8" d="M69,36.38c-.61-5.05-4.12-8.84-8.37-9.51-1.46.3-3.43.61-5.51.94-3.79,2-6.16,6.64-5.57,11.58,0,.14,0,.28.06.42l19.47-1.47A12.64,12.64,0,0,0,69,36.38Z"/><path class="cls-11" d="M58,26.58c-5.66.88-9.62,6.79-8.84,13.2L69.6,36.6C68.83,30.19,63.61,25.7,58,26.58Z"/><g class="cls-12"><path class="cls-13" d="M57.51,29.12c.93,1.13.32,3.48-1.37,5.25s-3.79,2.3-4.72,1.17-.32-3.48,1.37-5.25S56.59,28,57.51,29.12Z"/></g><g class="cls-14"><path class="cls-15" d="M65.63,28.88c.48,4.16-3.7,8.23-9.36,9.11a12.34,12.34,0,0,1-7.21-.92,13.29,13.29,0,0,0,0,2.71L69.6,36.6A12.07,12.07,0,0,0,65.63,28.88Z"/></g><path class="cls-6" d="M26.48,26.11C30.24,20.8,37.1,20,41.79,24.22a13.49,13.49,0,0,1,1.67,17.35c-3.77,5.31-10.62,6.16-15.31,1.89A13.49,13.49,0,0,1,26.48,26.11Z"/><path class="cls-7" d="M27.69,25c3.66-5.17,10.33-6,14.89-1.84A13.11,13.11,0,0,1,44.19,40c-3.66,5.17-10.33,6-14.89,1.84A13.11,13.11,0,0,1,27.69,25Z"/><path class="cls-8" d="M30.69,39.81a9.7,9.7,0,0,0,14.24-1A12.23,12.23,0,0,1,44.19,40c-3.66,5.17-10.33,6-14.89,1.84A13.11,13.11,0,0,1,27.69,25c.21-.29.42-.57.65-.83A13.11,13.11,0,0,0,30.69,39.81Z"/><path class="cls-9" d="M29.79,29.1a6.19,6.19,0,0,1,9.43-1.16,8.31,8.31,0,0,1,1,10.69,6.19,6.19,0,0,1-9.43,1.16A8.31,8.31,0,0,1,29.79,29.1Z"/><path class="cls-10" d="M32.17,31.27a3.37,3.37,0,0,1,5.13-.63,4.52,4.52,0,0,1,.56,5.81,3.37,3.37,0,0,1-5.13.63A4.52,4.52,0,0,1,32.17,31.27Z"/><path class="cls-7" d="M31.22,29.48a2,2,0,0,1,3.06-.38,2.7,2.7,0,0,1,.33,3.47,2,2,0,0,1-3.06.38A2.7,2.7,0,0,1,31.22,29.48Z"/><path class="cls-7" d="M34.52,37.51a1.25,1.25,0,0,1,1.9-.23,1.67,1.67,0,0,1,.21,2.15,1.25,1.25,0,0,1-1.9.23A1.67,1.67,0,0,1,34.52,37.51Z"/><path class="cls-8" d="M27.69,25a9.81,9.81,0,0,1,12.41-3.52c1.21,1.2,2.88,2.73,4.63,4.34A13.3,13.3,0,0,1,44.19,40l-.26.35L26.65,26.71A12.29,12.29,0,0,1,27.69,25Z"/><path class="cls-11" d="M42.75,22.86c4.8,4.37,5.57,12.33,1.71,17.78L27.06,24.8C30.93,19.35,37.95,18.49,42.75,22.86Z"/><g class="cls-12"><path class="cls-13" d="M41.91,25.49c-1.41.46-2,3-1.31,5.72s2.38,4.51,3.79,4.05,2-3,1.31-5.72S43.32,25,41.91,25.49Z"/></g><g class="cls-14"><path class="cls-15" d="M34.52,20.15C32,23.7,33.91,30.1,38.71,34.48a14.17,14.17,0,0,0,7.12,3.69,13,13,0,0,1-1.37,2.48L27.06,24.8A10.84,10.84,0,0,1,34.52,20.15Z"/></g><path class="cls-1" d="M67,62c.13-5.34-2.84-10-7.65-10.41-4.23-.39-6.65,3.42-10.87,4.26-5,1-10.26.53-14.11-3.85-1.5-1.7-2.47-3.39-4.28-4.73-3.57-2.64-8.37-1.59-9.43,3.65-.75,3.68.7,7.83,2.65,10.78A32.38,32.38,0,0,0,36.54,73.1a26,26,0,0,0,22.23.13,15.24,15.24,0,0,0,6.8-6.33A10.6,10.6,0,0,0,67,62Z"/><g class="cls-16"><g class="cls-17"><path class="cls-18" d="M55.38,72.14A6.14,6.14,0,0,0,56,68.47a11.33,11.33,0,0,0-4.69-7.92c-1.55-1.19-4.14-2-5.74-.62-1.26,1.08-.31,2.8-.39,4.19A2.47,2.47,0,0,1,41.51,66c-3.4-1.58.4-4.6-1.6-6.53-3.12-3-9-.14-10.34,2.76-5,10.6,13.27,17.89,22,13.77A7.58,7.58,0,0,0,55.38,72.14Z"/></g><path class="cls-19" d="M28,42.54c-.62,2-2.45,6.11-1,7.84s4.49-3.8,5.18-5A34.59,34.59,0,0,0,28,42.54Z"/><path class="cls-19" d="M34.85,48.84c-.66,2-2.58,6.38-1.13,8.17s4.44-4,5.07-5.17C37.46,50.87,36.18,49.82,34.85,48.84Z"/><path class="cls-19" d="M41.15,52.65c.08,1.93-.83,6.85,1.24,7.74s3.39-5.51,3.56-7.2C44.37,52.94,42.77,52.86,41.15,52.65Z"/><path class="cls-19" d="M49.06,52.22c.53,1.69,1.1,6.74,3,7s1.22-6.47.94-7.81C51.68,51.62,50.38,51.88,49.06,52.22Z"/><path class="cls-19" d="M58.86,76.14c-.79-1.66-1.93-6.42-4.09-6.11s-1,6.32-.58,8C55.75,77.45,57.32,76.85,58.86,76.14Z"/><path class="cls-19" d="M47.75,78.75c-.1-2.09.1-6.59-1.87-7.5s-3,5.22-3.26,6.67A39.26,39.26,0,0,0,47.75,78.75Z"/><path class="cls-19" d="M35.86,76.11c.37-2.08,1.77-6.43.21-8s-4.1,4-4.66,5.31A27.18,27.18,0,0,0,35.86,76.11Z"/><path class="cls-19" d="M25.14,67.81c1-1.89,3.43-5.63,2.34-7.73s-5,2.69-5.84,3.71C22.75,65.19,23.93,66.52,25.14,67.81Z"/><path class="cls-19" d="M56.29,48.62c.27,1.86.37,6.75,2.24,7.31S60.7,50,60.81,48.63C59.31,48.57,57.8,48.56,56.29,48.62Z"/></g><path class="cls-6" d="M54.23,22.27C54,23.45,51.89,24,49.42,23.51s-4.33-1.85-4.15-3,2.34-1.74,4.81-1.24S54.41,21.09,54.23,22.27Z"/><path class="cls-6" d="M25.8,33.15c-.15,1-1.89,1.41-3.9,1s-3.51-1.49-3.36-2.45,1.89-1.41,3.9-1S25.95,32.2,25.8,33.15Z"/><path class="cls-6" d="M74.41,47.12c-.14.88-1.56,1.34-3.19,1s-2.83-1.3-2.69-2.18,1.56-1.34,3.19-1S74.55,46.23,74.41,47.12Z"/><path class="cls-6" d="M23.2,38.77c-.07.45-.78.68-1.58.52s-1.39-.65-1.33-1.1.78-.68,1.58-.52S23.27,38.33,23.2,38.77Z"/><path class="cls-6" d="M75.59,42c-.07.45-.78.68-1.58.52s-1.39-.65-1.32-1.1.78-.68,1.58-.52S75.66,41.51,75.59,42Z"/><path class="cls-6" d="M19.14,40.59c-.07.45-.78.68-1.58.52s-1.39-.65-1.32-1.1.78-.68,1.58-.52S19.21,40.14,19.14,40.59Z"/><path class="cls-6" d="M71.8,54.05c-.07.45-.78.68-1.58.52s-1.39-.65-1.32-1.1.78-.68,1.58-.52S71.87,53.6,71.8,54.05Z"/><path class="cls-6" d="M76.79,52c0,.31-.54.47-1.09.36s-1-.45-.91-.76.54-.47,1.09-.36S76.84,51.73,76.79,52Z"/><path class="cls-6" d="M59.24,25.83c-.11.69-1.36,1-2.8.72S53.92,25.48,54,24.79s1.36-1,2.8-.72S59.35,25.14,59.24,25.83Z"/><path class="cls-20" d="M52.31,50.17c-.2,1.29-4.24,1.57-9,.62S34.77,48,35,46.72s4.24-1.57,9-.62S52.51,48.88,52.31,50.17Z"/><path class="cls-21" d="M18.06,10.32c.38,1.19-.83,2.79-2.71,3.56s-3.72.44-4.1-.75.83-2.79,2.71-3.56S17.68,9.13,18.06,10.32Z"/><path class="cls-21" d="M35.8,4c.31,1-.67,2.24-2.18,2.86s-3,.36-3.29-.6S31,4,32.51,3.37,35.49,3,35.8,4Z"/><path class="cls-21" d="M63.33,4.38c-.26,1-1.72,1.34-3.26.82S57.5,3.47,57.75,2.49,59.47,1.15,61,1.67,63.59,3.41,63.33,4.38Z"/><path class="cls-21" d="M66.29,7.53c-.29.44-1.08.33-1.78-.25s-1-1.41-.74-1.85,1.08-.33,1.78.25S66.58,7.08,66.29,7.53Z"/><path class="cls-21" d="M49.15,6.37c.25.76-.53,1.79-1.74,2.29s-2.38.28-2.63-.48.53-1.79,1.74-2.29S48.9,5.61,49.15,6.37Z"/><path class="cls-21" d="M76.24,19.25c-.46.62-1.63.37-2.62-.56s-1.41-2.2-.95-2.82,1.63-.37,2.62.56S76.7,18.63,76.24,19.25Z"/><path class="cls-21" d="M84,31.58c-.46.37-1.3-.09-1.88-1s-.67-2-.21-2.35,1.3.09,1.88,1S84.42,31.21,84,31.58Z"/><path class="cls-21" d="M84.86,67c-.65-.19-.93-1.41-.62-2.72s1.07-2.22,1.71-2,.93,1.41.62,2.72S85.51,67.23,84.86,67Z"/><path class="cls-21" d="M76.21,80.49c-.46-.55-.13-1.75.73-2.68s1.94-1.24,2.4-.7.13,1.75-.73,2.68S76.66,81,76.21,80.49Z"/><path class="cls-21" d="M49.32,87.59c0-.54.73-.95,1.58-.91s1.53.51,1.51,1-.73.95-1.58.91S49.3,88.13,49.32,87.59Z"/><path class="cls-21" d="M30.06,85.28c.56-1.13,2.45-1.14,4.24,0s2.79,3,2.23,4.09-2.45,1.14-4.24,0S29.5,86.42,30.06,85.28Z"/><path class="cls-21" d="M37.38,89.52c.17-.74,1.25-1.05,2.41-.71s2,1.22,1.8,2-1.25,1.05-2.41.71S37.21,90.26,37.38,89.52Z"/><path class="cls-21" d="M63.67,90.11c-.25-.95.76-2.14,2.25-2.65s2.92-.16,3.18.78-.76,2.14-2.25,2.65S63.92,91.06,63.67,90.11Z"/><path class="cls-21" d="M16.76,76.75c.56-.76,2-.45,3.19.69s1.72,2.68,1.16,3.44-2,.45-3.19-.69S16.2,77.51,16.76,76.75Z"/><path class="cls-21" d="M7.79,64.63c.49-.56,1.6-.2,2.48.79s1.2,2.25.7,2.81-1.6.2-2.48-.79S7.29,65.18,7.79,64.63Z"/><path class="cls-21" d="M4.52,43.6c1.18.05,2.06,2,2,4.41s-1.11,4.27-2.28,4.22-2.06-2-2-4.41S3.34,43.55,4.52,43.6Z"/><path class="cls-21" d="M4.76,53.31c.65-.22,1.46.66,1.82,2s.11,2.57-.54,2.79-1.46-.66-1.82-2S4.11,53.54,4.76,53.31Z"/><path class="cls-21" d="M9.68,26.43c.77.36.92,1.92.35,3.48S8.37,32.43,7.6,32.07s-.92-1.92-.35-3.48S8.91,26.07,9.68,26.43Z"/><path class="cls-21" d="M22.3,10.36c.08.61-.63,1.24-1.59,1.41s-1.81-.19-1.9-.8.63-1.24,1.59-1.41S22.22,9.75,22.3,10.36Z"/><path class="cls-21" d="M92.1,47.9c-1.26.08-2.36-1.43-2.46-3.38s.84-3.59,2.1-3.67,2.36,1.43,2.46,3.38S93.36,47.81,92.1,47.9Z"/><path class="cls-21" d="M90.89,52.83a1.75,1.75,0,0,1-.63-2.19c.31-.93,1.09-1.46,1.74-1.19a1.75,1.75,0,0,1,.63,2.19C92.32,52.57,91.54,53.11,90.89,52.83Z"/></g></g></g></svg>